<mxfile host="app.diagrams.net" modified="2023-11-17T01:07:16.462Z" agent="Mozilla/5.0 (Windows NT 10.0; Win64; x64) AppleWebKit/537.36 (KHTML, like Gecko) Chrome/119.0.0.0 Safari/537.36" etag="dTcRPtmUxovVQUtlTCRV" version="22.1.2" type="github">
  <diagram name="Page-1" id="MyQ80nWefAw48T-i43QX">
    <mxGraphModel dx="1196" dy="764" grid="1" gridSize="10" guides="1" tooltips="1" connect="1" arrows="1" fold="1" page="1" pageScale="1" pageWidth="1654" pageHeight="1169" math="0" shadow="0">
      <root>
        <mxCell id="0" />
        <mxCell id="1" parent="0" />
        <mxCell id="mT-B_lw5a5NogSuHsGwW-21" style="edgeStyle=orthogonalEdgeStyle;rounded=0;orthogonalLoop=1;jettySize=auto;html=1;" parent="1" target="mT-B_lw5a5NogSuHsGwW-5" edge="1">
          <mxGeometry relative="1" as="geometry">
            <mxPoint x="1232" y="190" as="sourcePoint" />
            <Array as="points">
              <mxPoint x="1232" y="360" />
            </Array>
          </mxGeometry>
        </mxCell>
        <mxCell id="mT-B_lw5a5NogSuHsGwW-54" value="governs" style="edgeLabel;html=1;align=center;verticalAlign=middle;resizable=0;points=[];" parent="mT-B_lw5a5NogSuHsGwW-21" vertex="1" connectable="0">
          <mxGeometry x="-0.5267" relative="1" as="geometry">
            <mxPoint as="offset" />
          </mxGeometry>
        </mxCell>
        <mxCell id="mT-B_lw5a5NogSuHsGwW-95" value="1..*" style="edgeLabel;html=1;align=center;verticalAlign=middle;resizable=0;points=[];" parent="mT-B_lw5a5NogSuHsGwW-21" vertex="1" connectable="0">
          <mxGeometry x="-0.8984" y="-1" relative="1" as="geometry">
            <mxPoint x="19" y="-10" as="offset" />
          </mxGeometry>
        </mxCell>
        <mxCell id="mT-B_lw5a5NogSuHsGwW-96" value="0..*" style="edgeLabel;html=1;align=center;verticalAlign=middle;resizable=0;points=[];" parent="mT-B_lw5a5NogSuHsGwW-21" vertex="1" connectable="0">
          <mxGeometry x="0.8492" y="1" relative="1" as="geometry">
            <mxPoint x="-13" y="9" as="offset" />
          </mxGeometry>
        </mxCell>
        <mxCell id="mT-B_lw5a5NogSuHsGwW-22" style="edgeStyle=orthogonalEdgeStyle;rounded=0;orthogonalLoop=1;jettySize=auto;html=1;" parent="1" target="mT-B_lw5a5NogSuHsGwW-5" edge="1">
          <mxGeometry relative="1" as="geometry">
            <mxPoint x="912" y="190" as="sourcePoint" />
          </mxGeometry>
        </mxCell>
        <mxCell id="mT-B_lw5a5NogSuHsGwW-53" value="publishes" style="edgeLabel;html=1;align=center;verticalAlign=middle;resizable=0;points=[];" parent="mT-B_lw5a5NogSuHsGwW-22" vertex="1" connectable="0">
          <mxGeometry x="-0.4108" relative="1" as="geometry">
            <mxPoint y="14" as="offset" />
          </mxGeometry>
        </mxCell>
        <mxCell id="mT-B_lw5a5NogSuHsGwW-93" value="1..*" style="edgeLabel;html=1;align=center;verticalAlign=middle;resizable=0;points=[];" parent="mT-B_lw5a5NogSuHsGwW-22" vertex="1" connectable="0">
          <mxGeometry x="0.5341" relative="1" as="geometry">
            <mxPoint x="18" as="offset" />
          </mxGeometry>
        </mxCell>
        <mxCell id="mT-B_lw5a5NogSuHsGwW-94" value="1..*" style="edgeLabel;html=1;align=center;verticalAlign=middle;resizable=0;points=[];" parent="mT-B_lw5a5NogSuHsGwW-22" vertex="1" connectable="0">
          <mxGeometry x="-0.8582" relative="1" as="geometry">
            <mxPoint x="18" y="4" as="offset" />
          </mxGeometry>
        </mxCell>
        <mxCell id="mT-B_lw5a5NogSuHsGwW-23" style="edgeStyle=orthogonalEdgeStyle;rounded=0;orthogonalLoop=1;jettySize=auto;html=1;entryX=0.5;entryY=1;entryDx=0;entryDy=0;exitX=0.5;exitY=1;exitDx=0;exitDy=0;" parent="1" source="mT-B_lw5a5NogSuHsGwW-8" edge="1">
          <mxGeometry relative="1" as="geometry">
            <mxPoint x="822" y="310" as="targetPoint" />
            <Array as="points">
              <mxPoint x="742" y="310" />
            </Array>
          </mxGeometry>
        </mxCell>
        <mxCell id="mT-B_lw5a5NogSuHsGwW-52" value="classifies" style="edgeLabel;html=1;align=center;verticalAlign=middle;resizable=0;points=[];" parent="mT-B_lw5a5NogSuHsGwW-23" vertex="1" connectable="0">
          <mxGeometry x="-0.58" y="-2" relative="1" as="geometry">
            <mxPoint x="2" y="8" as="offset" />
          </mxGeometry>
        </mxCell>
        <mxCell id="mT-B_lw5a5NogSuHsGwW-91" value="0..*" style="edgeLabel;html=1;align=center;verticalAlign=middle;resizable=0;points=[];" parent="mT-B_lw5a5NogSuHsGwW-23" vertex="1" connectable="0">
          <mxGeometry x="0.7798" relative="1" as="geometry">
            <mxPoint y="-10" as="offset" />
          </mxGeometry>
        </mxCell>
        <mxCell id="mT-B_lw5a5NogSuHsGwW-92" value="1..*" style="edgeLabel;html=1;align=center;verticalAlign=middle;resizable=0;points=[];" parent="mT-B_lw5a5NogSuHsGwW-23" vertex="1" connectable="0">
          <mxGeometry x="-0.8789" y="-1" relative="1" as="geometry">
            <mxPoint x="11" y="-2" as="offset" />
          </mxGeometry>
        </mxCell>
        <mxCell id="mT-B_lw5a5NogSuHsGwW-24" style="edgeStyle=orthogonalEdgeStyle;rounded=0;orthogonalLoop=1;jettySize=auto;html=1;" parent="1" target="mT-B_lw5a5NogSuHsGwW-5" edge="1">
          <mxGeometry relative="1" as="geometry">
            <mxPoint x="532" y="190" as="sourcePoint" />
            <Array as="points">
              <mxPoint x="532" y="190" />
              <mxPoint x="532" y="330" />
            </Array>
          </mxGeometry>
        </mxCell>
        <mxCell id="mT-B_lw5a5NogSuHsGwW-51" value="designs" style="edgeLabel;html=1;align=center;verticalAlign=middle;resizable=0;points=[];" parent="mT-B_lw5a5NogSuHsGwW-24" vertex="1" connectable="0">
          <mxGeometry x="0.0982" y="-1" relative="1" as="geometry">
            <mxPoint x="30" y="-9" as="offset" />
          </mxGeometry>
        </mxCell>
        <mxCell id="mT-B_lw5a5NogSuHsGwW-85" value="0..*" style="edgeLabel;html=1;align=center;verticalAlign=middle;resizable=0;points=[];" parent="mT-B_lw5a5NogSuHsGwW-24" vertex="1" connectable="0">
          <mxGeometry x="0.8774" y="-3" relative="1" as="geometry">
            <mxPoint y="7" as="offset" />
          </mxGeometry>
        </mxCell>
        <mxCell id="mT-B_lw5a5NogSuHsGwW-86" value="1..*" style="edgeLabel;html=1;align=center;verticalAlign=middle;resizable=0;points=[];" parent="mT-B_lw5a5NogSuHsGwW-24" vertex="1" connectable="0">
          <mxGeometry x="-0.9113" relative="1" as="geometry">
            <mxPoint x="18" y="-9" as="offset" />
          </mxGeometry>
        </mxCell>
        <mxCell id="mT-B_lw5a5NogSuHsGwW-5" value="GameItem" style="swimlane;whiteSpace=wrap;html=1;" parent="1" vertex="1">
          <mxGeometry x="822" y="280" width="180" height="370" as="geometry" />
        </mxCell>
        <mxCell id="mT-B_lw5a5NogSuHsGwW-38" value="&lt;div style=&quot;text-align: left;&quot;&gt;&lt;span style=&quot;background-color: initial;&quot;&gt;game_id {PK}&lt;/span&gt;&lt;/div&gt;&lt;div style=&quot;text-align: left;&quot;&gt;&lt;span style=&quot;background-color: initial;&quot;&gt;game_name {AK}&lt;/span&gt;&lt;/div&gt;&lt;div style=&quot;text-align: left;&quot;&gt;&lt;span style=&quot;background-color: initial;&quot;&gt;published_year&lt;/span&gt;&lt;/div&gt;&lt;div style=&quot;text-align: left;&quot;&gt;&lt;span style=&quot;background-color: initial;&quot;&gt;min_player&lt;/span&gt;&lt;/div&gt;&lt;div style=&quot;text-align: left;&quot;&gt;&lt;span style=&quot;background-color: initial;&quot;&gt;max_player&lt;/span&gt;&lt;/div&gt;&lt;div style=&quot;text-align: left;&quot;&gt;&lt;span style=&quot;background-color: initial;&quot;&gt;recommended_min_player&lt;/span&gt;&lt;/div&gt;&lt;div style=&quot;text-align: left;&quot;&gt;&lt;span style=&quot;background-color: initial;&quot;&gt;recommended_max_player&lt;/span&gt;&lt;/div&gt;&lt;div style=&quot;text-align: left;&quot;&gt;&lt;span style=&quot;background-color: initial;&quot;&gt;min_age&lt;/span&gt;&lt;/div&gt;&lt;div style=&quot;text-align: left;&quot;&gt;&lt;span style=&quot;background-color: initial;&quot;&gt;min_time&lt;/span&gt;&lt;/div&gt;&lt;div style=&quot;text-align: left;&quot;&gt;&lt;span style=&quot;background-color: initial;&quot;&gt;max_time&lt;/span&gt;&lt;/div&gt;&lt;div style=&quot;text-align: left;&quot;&gt;&lt;span style=&quot;background-color: initial;&quot;&gt;is_cooperative&lt;/span&gt;&lt;/div&gt;&lt;div style=&quot;text-align: left;&quot;&gt;&lt;span style=&quot;background-color: initial;&quot;&gt;/num_review&lt;/span&gt;&lt;/div&gt;&lt;div style=&quot;text-align: left;&quot;&gt;&lt;span style=&quot;background-color: initial;&quot;&gt;/avg_rating&lt;/span&gt;&lt;/div&gt;&lt;div style=&quot;text-align: left;&quot;&gt;&lt;span style=&quot;background-color: initial;&quot;&gt;/std_dev_rating&lt;/span&gt;&lt;/div&gt;&lt;div style=&quot;text-align: left;&quot;&gt;&lt;span style=&quot;background-color: initial;&quot;&gt;/rated_complexity&lt;/span&gt;&lt;/div&gt;&lt;div style=&quot;text-align: left;&quot;&gt;/rated_language_dependency&lt;/div&gt;&lt;div style=&quot;text-align: left;&quot;&gt;&lt;span style=&quot;background-color: initial;&quot;&gt;&lt;br&gt;&lt;/span&gt;&lt;/div&gt;&lt;div style=&quot;text-align: left;&quot;&gt;&lt;span style=&quot;background-color: initial;&quot;&gt;&lt;br&gt;&lt;/span&gt;&lt;/div&gt;&lt;div style=&quot;text-align: left;&quot;&gt;&lt;br&gt;&lt;/div&gt;" style="text;html=1;align=center;verticalAlign=middle;resizable=0;points=[];autosize=1;strokeColor=none;fillColor=none;" parent="mT-B_lw5a5NogSuHsGwW-5" vertex="1">
          <mxGeometry y="60" width="180" height="290" as="geometry" />
        </mxCell>
        <mxCell id="mT-B_lw5a5NogSuHsGwW-6" value="Publisher" style="swimlane;whiteSpace=wrap;html=1;" parent="1" vertex="1">
          <mxGeometry x="897" y="110" width="180" height="80" as="geometry" />
        </mxCell>
        <mxCell id="mT-B_lw5a5NogSuHsGwW-46" value="publisher_id {PK}&lt;br&gt;publisher_name {AK}&lt;br&gt;/games_published" style="text;html=1;align=center;verticalAlign=middle;resizable=0;points=[];autosize=1;strokeColor=none;fillColor=none;" parent="mT-B_lw5a5NogSuHsGwW-6" vertex="1">
          <mxGeometry x="15" y="20" width="140" height="60" as="geometry" />
        </mxCell>
        <mxCell id="mT-B_lw5a5NogSuHsGwW-7" value="Game Mechanic" style="swimlane;whiteSpace=wrap;html=1;" parent="1" vertex="1">
          <mxGeometry x="1152" y="110" width="200" height="80" as="geometry" />
        </mxCell>
        <mxCell id="mT-B_lw5a5NogSuHsGwW-47" value="mechanic_id {PK}&lt;br&gt;&lt;div style=&quot;text-align: left;&quot;&gt;&lt;span style=&quot;background-color: initial;&quot;&gt;mechanic_name&lt;/span&gt;&lt;/div&gt;" style="text;html=1;align=center;verticalAlign=middle;resizable=0;points=[];autosize=1;strokeColor=none;fillColor=none;" parent="mT-B_lw5a5NogSuHsGwW-7" vertex="1">
          <mxGeometry x="30" y="30" width="120" height="40" as="geometry" />
        </mxCell>
        <mxCell id="mT-B_lw5a5NogSuHsGwW-8" value="Game Type" style="swimlane;whiteSpace=wrap;html=1;" parent="1" vertex="1">
          <mxGeometry x="652" y="110" width="180" height="80" as="geometry" />
        </mxCell>
        <mxCell id="mT-B_lw5a5NogSuHsGwW-44" value="type_id {PK}&lt;br&gt;&lt;div style=&quot;text-align: left;&quot;&gt;&lt;span style=&quot;background-color: initial;&quot;&gt;type_name&lt;/span&gt;&lt;/div&gt;" style="text;html=1;align=center;verticalAlign=middle;resizable=0;points=[];autosize=1;strokeColor=none;fillColor=none;" parent="mT-B_lw5a5NogSuHsGwW-8" vertex="1">
          <mxGeometry x="23" y="30" width="90" height="40" as="geometry" />
        </mxCell>
        <mxCell id="mT-B_lw5a5NogSuHsGwW-9" value="Designer" style="swimlane;whiteSpace=wrap;html=1;" parent="1" vertex="1">
          <mxGeometry x="402" y="110" width="180" height="80" as="geometry" />
        </mxCell>
        <mxCell id="mT-B_lw5a5NogSuHsGwW-43" value="designer_id {PK}&lt;br&gt;designer_name" style="text;html=1;align=left;verticalAlign=middle;resizable=0;points=[];autosize=1;strokeColor=none;fillColor=none;" parent="mT-B_lw5a5NogSuHsGwW-9" vertex="1">
          <mxGeometry x="15" y="30" width="110" height="40" as="geometry" />
        </mxCell>
        <mxCell id="mT-B_lw5a5NogSuHsGwW-25" style="edgeStyle=orthogonalEdgeStyle;rounded=0;orthogonalLoop=1;jettySize=auto;html=1;exitX=1;exitY=0.5;exitDx=0;exitDy=0;" parent="1" source="mT-B_lw5a5NogSuHsGwW-10" edge="1">
          <mxGeometry relative="1" as="geometry">
            <mxPoint x="822" y="600" as="targetPoint" />
          </mxGeometry>
        </mxCell>
        <mxCell id="mT-B_lw5a5NogSuHsGwW-56" value="stocks" style="edgeLabel;html=1;align=center;verticalAlign=middle;resizable=0;points=[];" parent="mT-B_lw5a5NogSuHsGwW-25" vertex="1" connectable="0">
          <mxGeometry x="-0.3092" y="1" relative="1" as="geometry">
            <mxPoint x="17" y="-9" as="offset" />
          </mxGeometry>
        </mxCell>
        <mxCell id="mT-B_lw5a5NogSuHsGwW-111" value="0..*" style="edgeLabel;html=1;align=center;verticalAlign=middle;resizable=0;points=[];" parent="mT-B_lw5a5NogSuHsGwW-25" vertex="1" connectable="0">
          <mxGeometry x="-0.8708" relative="1" as="geometry">
            <mxPoint y="-10" as="offset" />
          </mxGeometry>
        </mxCell>
        <mxCell id="mT-B_lw5a5NogSuHsGwW-112" value="1..*" style="edgeLabel;html=1;align=center;verticalAlign=middle;resizable=0;points=[];" parent="mT-B_lw5a5NogSuHsGwW-25" vertex="1" connectable="0">
          <mxGeometry x="0.7912" relative="1" as="geometry">
            <mxPoint y="-15" as="offset" />
          </mxGeometry>
        </mxCell>
        <mxCell id="mT-B_lw5a5NogSuHsGwW-36" style="edgeStyle=orthogonalEdgeStyle;rounded=0;orthogonalLoop=1;jettySize=auto;html=1;entryX=-0.006;entryY=0.22;entryDx=0;entryDy=0;entryPerimeter=0;" parent="1" source="mT-B_lw5a5NogSuHsGwW-10" edge="1" target="mT-B_lw5a5NogSuHsGwW-18">
          <mxGeometry relative="1" as="geometry">
            <mxPoint x="940" y="770" as="targetPoint" />
            <Array as="points">
              <mxPoint x="387" y="740" />
              <mxPoint x="880" y="740" />
              <mxPoint x="880" y="770" />
            </Array>
          </mxGeometry>
        </mxCell>
        <mxCell id="mT-B_lw5a5NogSuHsGwW-57" value="receives" style="edgeLabel;html=1;align=center;verticalAlign=middle;resizable=0;points=[];" parent="mT-B_lw5a5NogSuHsGwW-36" vertex="1" connectable="0">
          <mxGeometry x="-0.1372" y="3" relative="1" as="geometry">
            <mxPoint x="16" y="-7" as="offset" />
          </mxGeometry>
        </mxCell>
        <mxCell id="mT-B_lw5a5NogSuHsGwW-10" value="Store" style="swimlane;whiteSpace=wrap;html=1;" parent="1" vertex="1">
          <mxGeometry x="272" y="540" width="230" height="120" as="geometry" />
        </mxCell>
        <mxCell id="mT-B_lw5a5NogSuHsGwW-80" value="store_id {PK}&lt;br&gt;store_name&lt;br&gt;" style="text;html=1;align=left;verticalAlign=middle;resizable=0;points=[];autosize=1;strokeColor=none;fillColor=none;" parent="mT-B_lw5a5NogSuHsGwW-10" vertex="1">
          <mxGeometry x="13" y="40" width="90" height="40" as="geometry" />
        </mxCell>
        <mxCell id="mT-B_lw5a5NogSuHsGwW-26" style="edgeStyle=orthogonalEdgeStyle;rounded=0;orthogonalLoop=1;jettySize=auto;html=1;endArrow=none;endFill=0;dashed=1;" parent="1" source="mT-B_lw5a5NogSuHsGwW-11" edge="1">
          <mxGeometry relative="1" as="geometry">
            <mxPoint x="665.335" y="600" as="targetPoint" />
          </mxGeometry>
        </mxCell>
        <mxCell id="mT-B_lw5a5NogSuHsGwW-11" value="" style="swimlane;whiteSpace=wrap;html=1;" parent="1" vertex="1">
          <mxGeometry x="582" y="620" width="166.67" height="60" as="geometry" />
        </mxCell>
        <mxCell id="mT-B_lw5a5NogSuHsGwW-12" value="num_inventory" style="text;html=1;align=center;verticalAlign=middle;resizable=0;points=[];autosize=1;strokeColor=none;fillColor=none;" parent="mT-B_lw5a5NogSuHsGwW-11" vertex="1">
          <mxGeometry x="33.339999999999996" y="30" width="100" height="30" as="geometry" />
        </mxCell>
        <mxCell id="mT-B_lw5a5NogSuHsGwW-29" style="edgeStyle=orthogonalEdgeStyle;rounded=0;orthogonalLoop=1;jettySize=auto;html=1;" parent="1" source="mT-B_lw5a5NogSuHsGwW-13" edge="1">
          <mxGeometry relative="1" as="geometry">
            <mxPoint x="332" y="660" as="targetPoint" />
            <Array as="points">
              <mxPoint x="332" y="660" />
            </Array>
          </mxGeometry>
        </mxCell>
        <mxCell id="mT-B_lw5a5NogSuHsGwW-81" value="works at" style="edgeLabel;html=1;align=center;verticalAlign=middle;resizable=0;points=[];" parent="mT-B_lw5a5NogSuHsGwW-29" vertex="1" connectable="0">
          <mxGeometry x="0.0992" y="2" relative="1" as="geometry">
            <mxPoint x="-28" as="offset" />
          </mxGeometry>
        </mxCell>
        <mxCell id="mT-B_lw5a5NogSuHsGwW-117" value="1..*" style="edgeLabel;html=1;align=center;verticalAlign=middle;resizable=0;points=[];" parent="mT-B_lw5a5NogSuHsGwW-29" vertex="1" connectable="0">
          <mxGeometry x="-0.5414" y="3" relative="1" as="geometry">
            <mxPoint as="offset" />
          </mxGeometry>
        </mxCell>
        <mxCell id="mT-B_lw5a5NogSuHsGwW-118" value="1..1" style="edgeLabel;html=1;align=center;verticalAlign=middle;resizable=0;points=[];" parent="mT-B_lw5a5NogSuHsGwW-29" vertex="1" connectable="0">
          <mxGeometry x="0.5949" y="-2" relative="1" as="geometry">
            <mxPoint as="offset" />
          </mxGeometry>
        </mxCell>
        <mxCell id="mT-B_lw5a5NogSuHsGwW-50" style="edgeStyle=orthogonalEdgeStyle;rounded=0;orthogonalLoop=1;jettySize=auto;html=1;entryX=0;entryY=0.75;entryDx=0;entryDy=0;" parent="1" source="mT-B_lw5a5NogSuHsGwW-13" edge="1" target="mT-B_lw5a5NogSuHsGwW-18">
          <mxGeometry relative="1" as="geometry">
            <mxPoint x="710" y="840" as="targetPoint" />
            <Array as="points">
              <mxPoint x="710" y="900" />
              <mxPoint x="710" y="818" />
            </Array>
          </mxGeometry>
        </mxCell>
        <mxCell id="mT-B_lw5a5NogSuHsGwW-58" value="fulfills" style="edgeLabel;html=1;align=center;verticalAlign=middle;resizable=0;points=[];" parent="mT-B_lw5a5NogSuHsGwW-50" vertex="1" connectable="0">
          <mxGeometry x="-0.2266" y="1" relative="1" as="geometry">
            <mxPoint x="9" y="-9" as="offset" />
          </mxGeometry>
        </mxCell>
        <mxCell id="mT-B_lw5a5NogSuHsGwW-123" value="0..1" style="edgeLabel;html=1;align=center;verticalAlign=middle;resizable=0;points=[];" parent="mT-B_lw5a5NogSuHsGwW-50" vertex="1" connectable="0">
          <mxGeometry x="-0.7373" y="2" relative="1" as="geometry">
            <mxPoint x="-1" y="-8" as="offset" />
          </mxGeometry>
        </mxCell>
        <mxCell id="mT-B_lw5a5NogSuHsGwW-126" value="0..*" style="edgeLabel;html=1;align=center;verticalAlign=middle;resizable=0;points=[];" parent="mT-B_lw5a5NogSuHsGwW-50" vertex="1" connectable="0">
          <mxGeometry x="0.8902" y="-8" relative="1" as="geometry">
            <mxPoint x="2" y="1" as="offset" />
          </mxGeometry>
        </mxCell>
        <mxCell id="mT-B_lw5a5NogSuHsGwW-72" style="edgeStyle=orthogonalEdgeStyle;rounded=0;orthogonalLoop=1;jettySize=auto;html=1;entryX=0;entryY=0.25;entryDx=0;entryDy=0;" parent="1" target="mT-B_lw5a5NogSuHsGwW-70" edge="1">
          <mxGeometry relative="1" as="geometry">
            <mxPoint x="445" y="660" as="sourcePoint" />
            <Array as="points">
              <mxPoint x="444" y="950" />
            </Array>
          </mxGeometry>
        </mxCell>
        <mxCell id="mT-B_lw5a5NogSuHsGwW-74" value="locates warehouse at" style="edgeLabel;html=1;align=center;verticalAlign=middle;resizable=0;points=[];" parent="mT-B_lw5a5NogSuHsGwW-72" vertex="1" connectable="0">
          <mxGeometry x="0.0732" y="-1" relative="1" as="geometry">
            <mxPoint x="81" y="9" as="offset" />
          </mxGeometry>
        </mxCell>
        <mxCell id="mT-B_lw5a5NogSuHsGwW-121" value="1..1" style="edgeLabel;html=1;align=center;verticalAlign=middle;resizable=0;points=[];" parent="mT-B_lw5a5NogSuHsGwW-72" vertex="1" connectable="0">
          <mxGeometry x="-0.9306" y="-1" relative="1" as="geometry">
            <mxPoint x="16" y="-12" as="offset" />
          </mxGeometry>
        </mxCell>
        <mxCell id="mT-B_lw5a5NogSuHsGwW-122" value="1..1" style="edgeLabel;html=1;align=center;verticalAlign=middle;resizable=0;points=[];" parent="mT-B_lw5a5NogSuHsGwW-72" vertex="1" connectable="0">
          <mxGeometry x="0.9015" y="1" relative="1" as="geometry">
            <mxPoint x="1" y="-9" as="offset" />
          </mxGeometry>
        </mxCell>
        <mxCell id="mT-B_lw5a5NogSuHsGwW-13" value="Staff" style="swimlane;whiteSpace=wrap;html=1;" parent="1" vertex="1">
          <mxGeometry x="232" y="770" width="188" height="200" as="geometry" />
        </mxCell>
        <mxCell id="mT-B_lw5a5NogSuHsGwW-48" value="staff_id {PK}&lt;br&gt;&lt;div style=&quot;&quot;&gt;&lt;span style=&quot;background-color: initial;&quot;&gt;name&lt;/span&gt;&lt;/div&gt;&lt;div style=&quot;&quot;&gt;&lt;span style=&quot;background-color: initial;&quot;&gt;login_name {AK}&lt;/span&gt;&lt;/div&gt;" style="text;html=1;align=left;verticalAlign=middle;resizable=0;points=[];autosize=1;strokeColor=none;fillColor=none;" parent="mT-B_lw5a5NogSuHsGwW-13" vertex="1">
          <mxGeometry x="28" y="70" width="110" height="60" as="geometry" />
        </mxCell>
        <mxCell id="mT-B_lw5a5NogSuHsGwW-27" style="edgeStyle=orthogonalEdgeStyle;rounded=0;orthogonalLoop=1;jettySize=auto;html=1;endArrow=block;endFill=0;" parent="1" source="mT-B_lw5a5NogSuHsGwW-14" edge="1">
          <mxGeometry relative="1" as="geometry">
            <mxPoint x="332" y="970" as="targetPoint" />
            <Array as="points">
              <mxPoint x="202" y="990" />
              <mxPoint x="332" y="990" />
              <mxPoint x="332" y="980" />
            </Array>
          </mxGeometry>
        </mxCell>
        <mxCell id="mT-B_lw5a5NogSuHsGwW-82" style="edgeStyle=orthogonalEdgeStyle;rounded=0;orthogonalLoop=1;jettySize=auto;html=1;exitX=0.25;exitY=0;exitDx=0;exitDy=0;entryX=0;entryY=0.5;entryDx=0;entryDy=0;" parent="1" source="mT-B_lw5a5NogSuHsGwW-14" target="mT-B_lw5a5NogSuHsGwW-10" edge="1">
          <mxGeometry relative="1" as="geometry" />
        </mxCell>
        <mxCell id="mT-B_lw5a5NogSuHsGwW-83" value="manages" style="edgeLabel;html=1;align=center;verticalAlign=middle;resizable=0;points=[];" parent="mT-B_lw5a5NogSuHsGwW-82" vertex="1" connectable="0">
          <mxGeometry x="0.1445" y="-2" relative="1" as="geometry">
            <mxPoint as="offset" />
          </mxGeometry>
        </mxCell>
        <mxCell id="mT-B_lw5a5NogSuHsGwW-115" value="1..1" style="edgeLabel;html=1;align=center;verticalAlign=middle;resizable=0;points=[];" parent="mT-B_lw5a5NogSuHsGwW-82" vertex="1" connectable="0">
          <mxGeometry x="-0.8601" y="3" relative="1" as="geometry">
            <mxPoint y="1" as="offset" />
          </mxGeometry>
        </mxCell>
        <mxCell id="mT-B_lw5a5NogSuHsGwW-116" value="1..1" style="edgeLabel;html=1;align=center;verticalAlign=middle;resizable=0;points=[];" parent="mT-B_lw5a5NogSuHsGwW-82" vertex="1" connectable="0">
          <mxGeometry x="0.8574" relative="1" as="geometry">
            <mxPoint x="-1" as="offset" />
          </mxGeometry>
        </mxCell>
        <mxCell id="mT-B_lw5a5NogSuHsGwW-14" value="Store Manager" style="swimlane;whiteSpace=wrap;html=1;startSize=23;" parent="1" vertex="1">
          <mxGeometry x="102" y="1002" width="200" height="90" as="geometry" />
        </mxCell>
        <mxCell id="mT-B_lw5a5NogSuHsGwW-49" value="management_start_date&lt;br&gt;annual_pay_rate" style="text;html=1;align=center;verticalAlign=middle;resizable=0;points=[];autosize=1;strokeColor=none;fillColor=none;" parent="mT-B_lw5a5NogSuHsGwW-14" vertex="1">
          <mxGeometry x="20" y="31" width="150" height="40" as="geometry" />
        </mxCell>
        <mxCell id="mT-B_lw5a5NogSuHsGwW-28" style="edgeStyle=orthogonalEdgeStyle;rounded=0;orthogonalLoop=1;jettySize=auto;html=1;endArrow=none;endFill=0;" parent="1" source="mT-B_lw5a5NogSuHsGwW-15" edge="1">
          <mxGeometry relative="1" as="geometry">
            <mxPoint x="320" y="990" as="targetPoint" />
            <Array as="points">
              <mxPoint x="472" y="990" />
              <mxPoint x="322" y="990" />
            </Array>
          </mxGeometry>
        </mxCell>
        <mxCell id="S3G3Oxr_NrjinYZqIqio-5" value="MANDATORY, OR" style="edgeLabel;html=1;align=center;verticalAlign=middle;resizable=0;points=[];" vertex="1" connectable="0" parent="mT-B_lw5a5NogSuHsGwW-28">
          <mxGeometry x="-0.0986" y="-1" relative="1" as="geometry">
            <mxPoint x="-24" y="-9" as="offset" />
          </mxGeometry>
        </mxCell>
        <mxCell id="mT-B_lw5a5NogSuHsGwW-15" value="Store Staff" style="swimlane;whiteSpace=wrap;html=1;startSize=23;" parent="1" vertex="1">
          <mxGeometry x="372" y="1002" width="200" height="90" as="geometry" />
        </mxCell>
        <mxCell id="mT-B_lw5a5NogSuHsGwW-33" style="edgeStyle=orthogonalEdgeStyle;rounded=0;orthogonalLoop=1;jettySize=auto;html=1;entryX=1;entryY=0.5;entryDx=0;entryDy=0;" parent="1" source="mT-B_lw5a5NogSuHsGwW-16" edge="1">
          <mxGeometry relative="1" as="geometry">
            <Array as="points">
              <mxPoint x="1160" y="795" />
              <mxPoint x="1160" y="795" />
            </Array>
            <mxPoint x="1082" y="795" as="targetPoint" />
          </mxGeometry>
        </mxCell>
        <mxCell id="mT-B_lw5a5NogSuHsGwW-61" value="creates" style="edgeLabel;html=1;align=center;verticalAlign=middle;resizable=0;points=[];" parent="mT-B_lw5a5NogSuHsGwW-33" vertex="1" connectable="0">
          <mxGeometry x="0.0567" relative="1" as="geometry">
            <mxPoint x="10" y="-15" as="offset" />
          </mxGeometry>
        </mxCell>
        <mxCell id="mT-B_lw5a5NogSuHsGwW-101" value="1..1" style="edgeLabel;html=1;align=center;verticalAlign=middle;resizable=0;points=[];" parent="mT-B_lw5a5NogSuHsGwW-33" vertex="1" connectable="0">
          <mxGeometry x="-0.5245" y="-2" relative="1" as="geometry">
            <mxPoint x="9" y="11" as="offset" />
          </mxGeometry>
        </mxCell>
        <mxCell id="mT-B_lw5a5NogSuHsGwW-102" value="0..*" style="edgeLabel;html=1;align=center;verticalAlign=middle;resizable=0;points=[];" parent="mT-B_lw5a5NogSuHsGwW-33" vertex="1" connectable="0">
          <mxGeometry x="0.6485" relative="1" as="geometry">
            <mxPoint y="8" as="offset" />
          </mxGeometry>
        </mxCell>
        <mxCell id="mT-B_lw5a5NogSuHsGwW-37" style="edgeStyle=orthogonalEdgeStyle;rounded=0;orthogonalLoop=1;jettySize=auto;html=1;" parent="1" source="mT-B_lw5a5NogSuHsGwW-16" edge="1">
          <mxGeometry relative="1" as="geometry">
            <mxPoint x="1272" y="530" as="targetPoint" />
            <Array as="points">
              <mxPoint x="1272" y="580" />
              <mxPoint x="1270" y="580" />
              <mxPoint x="1270" y="530" />
            </Array>
          </mxGeometry>
        </mxCell>
        <mxCell id="mT-B_lw5a5NogSuHsGwW-59" value="creates" style="edgeLabel;html=1;align=center;verticalAlign=middle;resizable=0;points=[];" parent="mT-B_lw5a5NogSuHsGwW-37" vertex="1" connectable="0">
          <mxGeometry x="0.2353" y="1" relative="1" as="geometry">
            <mxPoint y="-11" as="offset" />
          </mxGeometry>
        </mxCell>
        <mxCell id="mT-B_lw5a5NogSuHsGwW-97" value="1..1" style="edgeLabel;html=1;align=center;verticalAlign=middle;resizable=0;points=[];" parent="mT-B_lw5a5NogSuHsGwW-37" vertex="1" connectable="0">
          <mxGeometry x="-0.9159" y="1" relative="1" as="geometry">
            <mxPoint x="19" as="offset" />
          </mxGeometry>
        </mxCell>
        <mxCell id="mT-B_lw5a5NogSuHsGwW-98" value="0..*" style="edgeLabel;html=1;align=center;verticalAlign=middle;resizable=0;points=[];" parent="mT-B_lw5a5NogSuHsGwW-37" vertex="1" connectable="0">
          <mxGeometry x="0.8255" y="-5" relative="1" as="geometry">
            <mxPoint x="5" y="-5" as="offset" />
          </mxGeometry>
        </mxCell>
        <mxCell id="mT-B_lw5a5NogSuHsGwW-73" style="edgeStyle=orthogonalEdgeStyle;rounded=0;orthogonalLoop=1;jettySize=auto;html=1;entryX=1;entryY=0.5;entryDx=0;entryDy=0;" parent="1" source="mT-B_lw5a5NogSuHsGwW-16" target="mT-B_lw5a5NogSuHsGwW-70" edge="1">
          <mxGeometry relative="1" as="geometry">
            <Array as="points">
              <mxPoint x="1272" y="980" />
            </Array>
          </mxGeometry>
        </mxCell>
        <mxCell id="mT-B_lw5a5NogSuHsGwW-75" value="is associated with" style="edgeLabel;html=1;align=center;verticalAlign=middle;resizable=0;points=[];" parent="mT-B_lw5a5NogSuHsGwW-73" vertex="1" connectable="0">
          <mxGeometry x="0.0576" y="5" relative="1" as="geometry">
            <mxPoint x="3" y="-15" as="offset" />
          </mxGeometry>
        </mxCell>
        <mxCell id="mT-B_lw5a5NogSuHsGwW-103" value="1..*" style="edgeLabel;html=1;align=center;verticalAlign=middle;resizable=0;points=[];" parent="mT-B_lw5a5NogSuHsGwW-73" vertex="1" connectable="0">
          <mxGeometry x="-0.9646" y="-1" relative="1" as="geometry">
            <mxPoint x="9" y="4" as="offset" />
          </mxGeometry>
        </mxCell>
        <mxCell id="mT-B_lw5a5NogSuHsGwW-104" value="1..*" style="edgeLabel;html=1;align=center;verticalAlign=middle;resizable=0;points=[];" parent="mT-B_lw5a5NogSuHsGwW-73" vertex="1" connectable="0">
          <mxGeometry x="0.8513" y="1" relative="1" as="geometry">
            <mxPoint y="9" as="offset" />
          </mxGeometry>
        </mxCell>
        <mxCell id="mT-B_lw5a5NogSuHsGwW-16" value="Customer" style="swimlane;whiteSpace=wrap;html=1;" parent="1" vertex="1">
          <mxGeometry x="1182" y="750" width="180" height="170" as="geometry" />
        </mxCell>
        <mxCell id="mT-B_lw5a5NogSuHsGwW-69" value="customer_id {PK}&lt;br&gt;login_name {AK}&lt;br&gt;name&lt;br&gt;date_of_birth" style="text;html=1;align=left;verticalAlign=middle;resizable=0;points=[];autosize=1;strokeColor=none;fillColor=none;" parent="mT-B_lw5a5NogSuHsGwW-16" vertex="1">
          <mxGeometry x="20" y="65" width="120" height="70" as="geometry" />
        </mxCell>
        <mxCell id="mT-B_lw5a5NogSuHsGwW-34" style="edgeStyle=orthogonalEdgeStyle;rounded=0;orthogonalLoop=1;jettySize=auto;html=1;" parent="1" edge="1">
          <mxGeometry relative="1" as="geometry">
            <mxPoint x="983" y="650" as="targetPoint" />
            <Array as="points">
              <mxPoint x="982" y="700" />
              <mxPoint x="983" y="700" />
              <mxPoint x="983" y="650" />
            </Array>
            <mxPoint x="982.090909090909" y="750" as="sourcePoint" />
          </mxGeometry>
        </mxCell>
        <mxCell id="mT-B_lw5a5NogSuHsGwW-62" value="contains" style="edgeLabel;html=1;align=center;verticalAlign=middle;resizable=0;points=[];" parent="mT-B_lw5a5NogSuHsGwW-34" vertex="1" connectable="0">
          <mxGeometry x="0.0874" y="1" relative="1" as="geometry">
            <mxPoint x="28" y="34" as="offset" />
          </mxGeometry>
        </mxCell>
        <mxCell id="mT-B_lw5a5NogSuHsGwW-105" value="1..*" style="edgeLabel;html=1;align=center;verticalAlign=middle;resizable=0;points=[];" parent="mT-B_lw5a5NogSuHsGwW-34" vertex="1" connectable="0">
          <mxGeometry x="-0.7725" y="2" relative="1" as="geometry">
            <mxPoint x="-10" as="offset" />
          </mxGeometry>
        </mxCell>
        <mxCell id="mT-B_lw5a5NogSuHsGwW-106" value="0..*" style="edgeLabel;html=1;align=center;verticalAlign=middle;resizable=0;points=[];" parent="mT-B_lw5a5NogSuHsGwW-34" vertex="1" connectable="0">
          <mxGeometry x="0.6901" y="2" relative="1" as="geometry">
            <mxPoint x="-11" as="offset" />
          </mxGeometry>
        </mxCell>
        <mxCell id="mT-B_lw5a5NogSuHsGwW-76" style="edgeStyle=orthogonalEdgeStyle;rounded=0;orthogonalLoop=1;jettySize=auto;html=1;exitX=0.5;exitY=1;exitDx=0;exitDy=0;entryX=0.25;entryY=0;entryDx=0;entryDy=0;" parent="1" target="mT-B_lw5a5NogSuHsGwW-70" edge="1">
          <mxGeometry relative="1" as="geometry">
            <mxPoint x="982" y="840" as="sourcePoint" />
            <Array as="points">
              <mxPoint x="980" y="841" />
              <mxPoint x="980" y="890" />
              <mxPoint x="841" y="890" />
            </Array>
          </mxGeometry>
        </mxCell>
        <mxCell id="mT-B_lw5a5NogSuHsGwW-77" value="ships to" style="edgeLabel;html=1;align=center;verticalAlign=middle;resizable=0;points=[];" parent="mT-B_lw5a5NogSuHsGwW-76" vertex="1" connectable="0">
          <mxGeometry x="0.2135" relative="1" as="geometry">
            <mxPoint x="19" y="4" as="offset" />
          </mxGeometry>
        </mxCell>
        <mxCell id="mT-B_lw5a5NogSuHsGwW-109" value="1..1" style="edgeLabel;html=1;align=center;verticalAlign=middle;resizable=0;points=[];" parent="mT-B_lw5a5NogSuHsGwW-76" vertex="1" connectable="0">
          <mxGeometry x="0.7267" relative="1" as="geometry">
            <mxPoint x="9" as="offset" />
          </mxGeometry>
        </mxCell>
        <mxCell id="mT-B_lw5a5NogSuHsGwW-110" value="0..*" style="edgeLabel;html=1;align=center;verticalAlign=middle;resizable=0;points=[];" parent="mT-B_lw5a5NogSuHsGwW-76" vertex="1" connectable="0">
          <mxGeometry x="-0.8293" relative="1" as="geometry">
            <mxPoint as="offset" />
          </mxGeometry>
        </mxCell>
        <mxCell id="mT-B_lw5a5NogSuHsGwW-18" value="Order" style="swimlane;whiteSpace=wrap;html=1;" parent="1" vertex="1">
          <mxGeometry x="950" y="750" width="130" height="90" as="geometry" />
        </mxCell>
        <mxCell id="mT-B_lw5a5NogSuHsGwW-66" value="order_id {PK}&lt;br&gt;order_status&lt;br&gt;/order_total&amp;nbsp;" style="text;html=1;align=left;verticalAlign=middle;resizable=0;points=[];autosize=1;strokeColor=none;fillColor=none;" parent="mT-B_lw5a5NogSuHsGwW-18" vertex="1">
          <mxGeometry x="23" y="30" width="90" height="60" as="geometry" />
        </mxCell>
        <mxCell id="mT-B_lw5a5NogSuHsGwW-19" value="Review" style="swimlane;whiteSpace=wrap;html=1;startSize=23;" parent="1" vertex="1">
          <mxGeometry x="1162" y="400" width="200" height="130" as="geometry" />
        </mxCell>
        <mxCell id="mT-B_lw5a5NogSuHsGwW-84" value="rating&lt;br&gt;text_review&lt;br&gt;complexity_rating&lt;br&gt;language_dependency_ratinf" style="text;html=1;align=left;verticalAlign=middle;resizable=0;points=[];autosize=1;strokeColor=none;fillColor=none;" parent="mT-B_lw5a5NogSuHsGwW-19" vertex="1">
          <mxGeometry x="10" y="40" width="180" height="70" as="geometry" />
        </mxCell>
        <mxCell id="mT-B_lw5a5NogSuHsGwW-20" value="Credit Card" style="swimlane;whiteSpace=wrap;html=1;" parent="1" vertex="1">
          <mxGeometry x="1362" y="940" width="190" height="100" as="geometry" />
        </mxCell>
        <mxCell id="mT-B_lw5a5NogSuHsGwW-68" value="credit_card_id {PK}&lt;br&gt;credit_card_number&lt;br&gt;expiration_date&lt;br&gt;security_code" style="text;html=1;align=left;verticalAlign=middle;resizable=0;points=[];autosize=1;strokeColor=none;fillColor=none;" parent="mT-B_lw5a5NogSuHsGwW-20" vertex="1">
          <mxGeometry x="30" y="30" width="130" height="70" as="geometry" />
        </mxCell>
        <mxCell id="mT-B_lw5a5NogSuHsGwW-31" style="edgeStyle=orthogonalEdgeStyle;rounded=0;orthogonalLoop=1;jettySize=auto;html=1;" parent="1" source="mT-B_lw5a5NogSuHsGwW-16" edge="1">
          <mxGeometry relative="1" as="geometry">
            <mxPoint x="1452" y="939" as="targetPoint" />
            <Array as="points">
              <mxPoint x="1452" y="795" />
              <mxPoint x="1452" y="939" />
            </Array>
          </mxGeometry>
        </mxCell>
        <mxCell id="mT-B_lw5a5NogSuHsGwW-60" value="owns" style="edgeLabel;html=1;align=center;verticalAlign=middle;resizable=0;points=[];" parent="mT-B_lw5a5NogSuHsGwW-31" vertex="1" connectable="0">
          <mxGeometry x="0.2498" y="-1" relative="1" as="geometry">
            <mxPoint x="19" as="offset" />
          </mxGeometry>
        </mxCell>
        <mxCell id="mT-B_lw5a5NogSuHsGwW-99" value="1..*" style="edgeLabel;html=1;align=center;verticalAlign=middle;resizable=0;points=[];" parent="mT-B_lw5a5NogSuHsGwW-31" vertex="1" connectable="0">
          <mxGeometry x="-0.7911" y="2" relative="1" as="geometry">
            <mxPoint x="-7" y="-13" as="offset" />
          </mxGeometry>
        </mxCell>
        <mxCell id="mT-B_lw5a5NogSuHsGwW-100" value="1..*" style="edgeLabel;html=1;align=center;verticalAlign=middle;resizable=0;points=[];" parent="mT-B_lw5a5NogSuHsGwW-31" vertex="1" connectable="0">
          <mxGeometry x="0.7287" y="-1" relative="1" as="geometry">
            <mxPoint x="19" y="13" as="offset" />
          </mxGeometry>
        </mxCell>
        <mxCell id="mT-B_lw5a5NogSuHsGwW-45" style="edgeStyle=orthogonalEdgeStyle;rounded=0;orthogonalLoop=1;jettySize=auto;html=1;" parent="1" source="mT-B_lw5a5NogSuHsGwW-5" edge="1">
          <mxGeometry relative="1" as="geometry">
            <mxPoint x="1000" y="330" as="targetPoint" />
            <Array as="points">
              <mxPoint x="980" y="260" />
              <mxPoint x="1022" y="260" />
              <mxPoint x="1022" y="330" />
            </Array>
          </mxGeometry>
        </mxCell>
        <mxCell id="mT-B_lw5a5NogSuHsGwW-55" value="reimplement" style="edgeLabel;html=1;align=center;verticalAlign=middle;resizable=0;points=[];" parent="mT-B_lw5a5NogSuHsGwW-45" vertex="1" connectable="0">
          <mxGeometry x="-0.0984" y="-1" relative="1" as="geometry">
            <mxPoint x="9" y="-17" as="offset" />
          </mxGeometry>
        </mxCell>
        <mxCell id="mT-B_lw5a5NogSuHsGwW-113" value="0..*" style="edgeLabel;html=1;align=center;verticalAlign=middle;resizable=0;points=[];" parent="mT-B_lw5a5NogSuHsGwW-45" vertex="1" connectable="0">
          <mxGeometry x="-0.7398" relative="1" as="geometry">
            <mxPoint as="offset" />
          </mxGeometry>
        </mxCell>
        <mxCell id="mT-B_lw5a5NogSuHsGwW-114" value="0..*" style="edgeLabel;html=1;align=center;verticalAlign=middle;resizable=0;points=[];" parent="mT-B_lw5a5NogSuHsGwW-45" vertex="1" connectable="0">
          <mxGeometry x="0.6898" relative="1" as="geometry">
            <mxPoint as="offset" />
          </mxGeometry>
        </mxCell>
        <mxCell id="mT-B_lw5a5NogSuHsGwW-65" style="edgeStyle=orthogonalEdgeStyle;rounded=0;orthogonalLoop=1;jettySize=auto;html=1;endArrow=none;endFill=0;dashed=1;" parent="1" source="mT-B_lw5a5NogSuHsGwW-63" edge="1">
          <mxGeometry relative="1" as="geometry">
            <mxPoint x="990" y="690" as="targetPoint" />
          </mxGeometry>
        </mxCell>
        <mxCell id="mT-B_lw5a5NogSuHsGwW-63" value="" style="swimlane;whiteSpace=wrap;html=1;" parent="1" vertex="1">
          <mxGeometry x="1077" y="660" width="110" height="60" as="geometry" />
        </mxCell>
        <mxCell id="mT-B_lw5a5NogSuHsGwW-64" value="quantity" style="text;html=1;align=center;verticalAlign=middle;resizable=0;points=[];autosize=1;strokeColor=none;fillColor=none;" parent="mT-B_lw5a5NogSuHsGwW-63" vertex="1">
          <mxGeometry x="16.999999999999996" y="30" width="70" height="30" as="geometry" />
        </mxCell>
        <mxCell id="mT-B_lw5a5NogSuHsGwW-70" value="Address" style="swimlane;whiteSpace=wrap;html=1;startSize=23;" parent="1" vertex="1">
          <mxGeometry x="800" y="920" width="163" height="120" as="geometry" />
        </mxCell>
        <mxCell id="mT-B_lw5a5NogSuHsGwW-71" value="address_id {PK}&lt;br&gt;street_no&lt;br&gt;street_name&lt;br&gt;state_abbreviation&lt;br&gt;zip_code" style="text;html=1;align=left;verticalAlign=middle;resizable=0;points=[];autosize=1;strokeColor=none;fillColor=none;" parent="mT-B_lw5a5NogSuHsGwW-70" vertex="1">
          <mxGeometry x="22" y="25" width="120" height="90" as="geometry" />
        </mxCell>
        <mxCell id="mT-B_lw5a5NogSuHsGwW-79" value="hourly_pay_rate" style="text;html=1;align=center;verticalAlign=middle;resizable=0;points=[];autosize=1;strokeColor=none;fillColor=none;" parent="1" vertex="1">
          <mxGeometry x="375" y="1038" width="110" height="30" as="geometry" />
        </mxCell>
        <mxCell id="S3G3Oxr_NrjinYZqIqio-8" style="edgeStyle=orthogonalEdgeStyle;rounded=0;orthogonalLoop=1;jettySize=auto;html=1;exitX=0;exitY=0.5;exitDx=0;exitDy=0;entryX=0.995;entryY=0.43;entryDx=0;entryDy=0;entryPerimeter=0;" edge="1" parent="1" source="mT-B_lw5a5NogSuHsGwW-19" target="mT-B_lw5a5NogSuHsGwW-38">
          <mxGeometry relative="1" as="geometry" />
        </mxCell>
        <mxCell id="S3G3Oxr_NrjinYZqIqio-9" value="associates with" style="edgeLabel;html=1;align=center;verticalAlign=middle;resizable=0;points=[];" vertex="1" connectable="0" parent="S3G3Oxr_NrjinYZqIqio-8">
          <mxGeometry x="-0.0853" y="-1" relative="1" as="geometry">
            <mxPoint y="-14" as="offset" />
          </mxGeometry>
        </mxCell>
        <mxCell id="S3G3Oxr_NrjinYZqIqio-10" value="1..1" style="edgeLabel;html=1;align=center;verticalAlign=middle;resizable=0;points=[];" vertex="1" connectable="0" parent="S3G3Oxr_NrjinYZqIqio-8">
          <mxGeometry x="0.788" relative="1" as="geometry">
            <mxPoint x="12" y="15" as="offset" />
          </mxGeometry>
        </mxCell>
        <mxCell id="S3G3Oxr_NrjinYZqIqio-11" value="0..*" style="edgeLabel;html=1;align=center;verticalAlign=middle;resizable=0;points=[];" vertex="1" connectable="0" parent="S3G3Oxr_NrjinYZqIqio-8">
          <mxGeometry x="-0.8035" y="3" relative="1" as="geometry">
            <mxPoint y="7" as="offset" />
          </mxGeometry>
        </mxCell>
      </root>
    </mxGraphModel>
  </diagram>
</mxfile>
